<svg width="48" height="48" viewBox="0 0 48 48" fill="none" xmlns="http://www.w3.org/2000/svg">
<path d="M8 20C8 14.3431 8 11.5147 9.75736 9.75736C11.5147 8 14.3431 8 20 8H28C33.6569 8 36.4853 8 38.2426 9.75736C40 11.5147 40 14.3431 40 20V33.6552C40 39.0218 40 41.7051 38.3114 42.5258C36.6228 43.3465 34.5129 41.6887 30.2931 38.3731L28.9426 37.312C26.5698 35.4477 25.3835 34.5156 24 34.5156C22.6165 34.5156 21.4302 35.4477 19.0574 37.312L17.7069 38.3731C13.4871 41.6887 11.3772 43.3465 9.68859 42.5258C8 41.7051 8 39.0218 8 33.6552V20Z" stroke="white" stroke-width="4"/>
</svg>
