<svg width="133" height="50" viewBox="0 0 133 50" fill="none" xmlns="http://www.w3.org/2000/svg">
<path d="M66.646 23.402C66.502 23.522 66.232 23.684 65.836 23.888C65.452 24.092 64.978 24.272 64.414 24.428C63.85 24.584 63.226 24.656 62.542 24.644C61.498 24.62 60.562 24.434 59.734 24.086C58.918 23.726 58.222 23.24 57.646 22.628C57.082 22.016 56.65 21.314 56.35 20.522C56.05 19.73 55.9 18.884 55.9 17.984C55.9 16.976 56.05 16.052 56.35 15.212C56.662 14.372 57.1 13.646 57.664 13.034C58.24 12.422 58.924 11.948 59.716 11.612C60.508 11.276 61.384 11.108 62.344 11.108C63.232 11.108 64.018 11.228 64.702 11.468C65.386 11.708 65.944 11.966 66.376 12.242L65.35 14.708C65.05 14.48 64.648 14.246 64.144 14.006C63.652 13.754 63.082 13.628 62.434 13.628C61.93 13.628 61.444 13.736 60.976 13.952C60.52 14.156 60.112 14.45 59.752 14.834C59.404 15.218 59.128 15.668 58.924 16.184C58.72 16.688 58.618 17.24 58.618 17.84C58.618 18.476 58.708 19.058 58.888 19.586C59.08 20.114 59.35 20.57 59.698 20.954C60.046 21.326 60.46 21.614 60.94 21.818C61.432 22.022 61.984 22.124 62.596 22.124C63.304 22.124 63.91 22.01 64.414 21.782C64.918 21.554 65.302 21.314 65.566 21.062L66.646 23.402ZM68.2348 20.468C68.2348 19.664 68.4208 18.944 68.7928 18.308C69.1768 17.672 69.7108 17.174 70.3948 16.814C71.0788 16.442 71.8648 16.256 72.7528 16.256C73.6528 16.256 74.4328 16.442 75.0928 16.814C75.7528 17.174 76.2568 17.672 76.6048 18.308C76.9648 18.944 77.1448 19.664 77.1448 20.468C77.1448 21.272 76.9648 21.998 76.6048 22.646C76.2568 23.282 75.7528 23.786 75.0928 24.158C74.4328 24.53 73.6408 24.716 72.7168 24.716C71.8528 24.716 71.0788 24.548 70.3948 24.212C69.7228 23.876 69.1948 23.39 68.8108 22.754C68.4268 22.118 68.2348 21.356 68.2348 20.468ZM70.7728 20.486C70.7728 20.894 70.8568 21.266 71.0248 21.602C71.1928 21.926 71.4208 22.184 71.7088 22.376C71.9968 22.568 72.3208 22.664 72.6808 22.664C73.0768 22.664 73.4188 22.568 73.7068 22.376C73.9948 22.184 74.2168 21.926 74.3728 21.602C74.5288 21.266 74.6068 20.894 74.6068 20.486C74.6068 20.066 74.5288 19.694 74.3728 19.37C74.2168 19.046 73.9948 18.788 73.7068 18.596C73.4188 18.404 73.0768 18.308 72.6808 18.308C72.3208 18.308 71.9968 18.404 71.7088 18.596C71.4208 18.788 71.1928 19.046 71.0248 19.37C70.8568 19.694 70.7728 20.066 70.7728 20.486ZM78.518 20.468C78.518 19.664 78.704 18.944 79.076 18.308C79.46 17.672 79.994 17.174 80.678 16.814C81.362 16.442 82.148 16.256 83.036 16.256C83.936 16.256 84.716 16.442 85.376 16.814C86.036 17.174 86.54 17.672 86.888 18.308C87.248 18.944 87.428 19.664 87.428 20.468C87.428 21.272 87.248 21.998 86.888 22.646C86.54 23.282 86.036 23.786 85.376 24.158C84.716 24.53 83.924 24.716 83 24.716C82.136 24.716 81.362 24.548 80.678 24.212C80.006 23.876 79.478 23.39 79.094 22.754C78.71 22.118 78.518 21.356 78.518 20.468ZM81.056 20.486C81.056 20.894 81.14 21.266 81.308 21.602C81.476 21.926 81.704 22.184 81.992 22.376C82.28 22.568 82.604 22.664 82.964 22.664C83.36 22.664 83.702 22.568 83.99 22.376C84.278 22.184 84.5 21.926 84.656 21.602C84.812 21.266 84.89 20.894 84.89 20.486C84.89 20.066 84.812 19.694 84.656 19.37C84.5 19.046 84.278 18.788 83.99 18.596C83.702 18.404 83.36 18.308 82.964 18.308C82.604 18.308 82.28 18.404 81.992 18.596C81.704 18.788 81.476 19.046 81.308 19.37C81.14 19.694 81.056 20.066 81.056 20.486ZM89.4132 10.298H91.9332V24.5H89.4132V10.298ZM98.8304 11.252C100.21 11.252 101.308 11.534 102.124 12.098C102.94 12.65 103.348 13.478 103.348 14.582C103.348 15.398 103.144 16.082 102.736 16.634C102.34 17.174 101.794 17.582 101.098 17.858C100.414 18.122 99.6284 18.254 98.7404 18.254L98.3264 16.85C99.4184 16.85 100.384 17 101.224 17.3C102.076 17.6 102.748 18.032 103.24 18.596C103.732 19.148 103.978 19.814 103.978 20.594C103.978 21.314 103.846 21.926 103.582 22.43C103.33 22.922 102.982 23.324 102.538 23.636C102.106 23.936 101.614 24.158 101.062 24.302C100.51 24.434 99.9404 24.5 99.3524 24.5H94.9424V11.252H98.8304ZM99.1364 16.67C99.6524 16.67 100.03 16.514 100.27 16.202C100.522 15.89 100.648 15.536 100.648 15.14C100.648 14.684 100.492 14.342 100.18 14.114C99.8804 13.886 99.4724 13.772 98.9564 13.772H97.5524V16.67H99.1364ZM99.2264 22.07C99.6104 22.07 99.9584 22.022 100.27 21.926C100.582 21.818 100.828 21.656 101.008 21.44C101.188 21.212 101.278 20.93 101.278 20.594C101.278 20.21 101.17 19.922 100.954 19.73C100.738 19.526 100.456 19.388 100.108 19.316C99.7724 19.232 99.4184 19.19 99.0464 19.19H97.5524V22.07H99.2264ZM108.721 24.878C108.013 24.878 107.419 24.662 106.939 24.23C106.459 23.786 106.207 23.216 106.183 22.52V16.634H108.703V21.584C108.727 21.932 108.817 22.214 108.973 22.43C109.129 22.634 109.393 22.736 109.765 22.736C110.137 22.736 110.455 22.61 110.719 22.358C110.995 22.106 111.205 21.764 111.349 21.332C111.505 20.888 111.583 20.39 111.583 19.838V16.634H114.103V24.5H111.817L111.619 23.06L111.655 23.222C111.475 23.546 111.247 23.834 110.971 24.086C110.695 24.338 110.365 24.53 109.981 24.662C109.609 24.806 109.189 24.878 108.721 24.878ZM120.762 28.46C120.054 28.46 119.454 28.376 118.962 28.208C118.482 28.04 118.074 27.836 117.738 27.596C117.402 27.356 117.102 27.128 116.838 26.912L118.314 25.184C118.59 25.436 118.908 25.676 119.268 25.904C119.64 26.144 120.126 26.264 120.726 26.264C121.122 26.264 121.488 26.192 121.824 26.048C122.172 25.916 122.448 25.718 122.652 25.454C122.868 25.19 122.976 24.86 122.976 24.464V22.736L123.066 23.186C122.874 23.594 122.526 23.954 122.022 24.266C121.518 24.566 120.858 24.716 120.042 24.716C119.334 24.716 118.674 24.536 118.062 24.176C117.462 23.804 116.982 23.306 116.622 22.682C116.262 22.046 116.082 21.326 116.082 20.522C116.082 19.694 116.274 18.962 116.658 18.326C117.042 17.678 117.54 17.168 118.152 16.796C118.764 16.424 119.412 16.238 120.096 16.238C120.78 16.238 121.368 16.34 121.86 16.544C122.364 16.736 122.742 16.976 122.994 17.264L122.904 17.498L123.174 16.634H125.496V24.5C125.496 25.268 125.28 25.946 124.848 26.534C124.416 27.134 123.84 27.602 123.12 27.938C122.412 28.286 121.626 28.46 120.762 28.46ZM118.62 20.45C118.62 20.87 118.716 21.248 118.908 21.584C119.1 21.92 119.358 22.184 119.682 22.376C120.018 22.568 120.39 22.664 120.798 22.664C121.146 22.664 121.452 22.622 121.716 22.538C121.992 22.442 122.232 22.31 122.436 22.142C122.652 21.962 122.832 21.74 122.976 21.476V19.55C122.868 19.286 122.706 19.064 122.49 18.884C122.274 18.692 122.022 18.548 121.734 18.452C121.458 18.344 121.146 18.29 120.798 18.29C120.39 18.29 120.018 18.386 119.682 18.578C119.358 18.758 119.1 19.01 118.908 19.334C118.716 19.658 118.62 20.03 118.62 20.45ZM56.71 31.252H64.99V33.772H59.32V36.778H64.234V39.298H59.32V44.5H56.71V31.252ZM67.089 36.634H69.609V44.5H67.089V36.634ZM67.035 33.844C67.035 33.472 67.179 33.166 67.467 32.926C67.767 32.686 68.085 32.566 68.421 32.566C68.757 32.566 69.063 32.686 69.339 32.926C69.627 33.166 69.771 33.472 69.771 33.844C69.771 34.216 69.627 34.522 69.339 34.762C69.063 34.99 68.757 35.104 68.421 35.104C68.085 35.104 67.767 34.99 67.467 34.762C67.179 34.522 67.035 34.216 67.035 33.844ZM72.2042 30.298H74.7242V44.5H72.2042V30.298ZM79.6054 36.634L79.8034 38.02L79.7674 37.912C80.0794 37.384 80.4694 36.976 80.9374 36.688C81.4054 36.388 81.9694 36.238 82.6294 36.238C83.0614 36.238 83.4394 36.298 83.7634 36.418C84.0994 36.538 84.3814 36.718 84.6094 36.958C84.8374 37.186 84.9934 37.486 85.0774 37.858L84.9874 37.876C85.3234 37.384 85.7254 36.988 86.1934 36.688C86.6734 36.388 87.1714 36.238 87.6874 36.238C88.4674 36.238 89.0854 36.46 89.5414 36.904C90.0094 37.336 90.2494 37.9 90.2614 38.596V44.5H87.7594V39.64C87.7474 39.292 87.6934 39.01 87.5974 38.794C87.5014 38.566 87.2794 38.44 86.9314 38.416C86.5234 38.416 86.1754 38.56 85.8874 38.848C85.6114 39.124 85.4014 39.484 85.2574 39.928C85.1254 40.36 85.0594 40.81 85.0594 41.278V44.5H82.5394V39.64C82.5274 39.292 82.4614 39.01 82.3414 38.794C82.2334 38.566 82.0054 38.44 81.6574 38.416C81.2614 38.416 80.9254 38.56 80.6494 38.848C80.3854 39.124 80.1814 39.478 80.0374 39.91C79.9054 40.342 79.8394 40.786 79.8394 41.242V44.5H77.3194V36.634H79.6054ZM98.0245 44.716C97.3645 44.716 96.8065 44.608 96.3505 44.392C95.9065 44.164 95.5165 43.87 95.1805 43.51L95.3785 42.97V44.5H92.8585V30.298H95.3605V37.984V37.174C95.6725 36.91 96.0865 36.688 96.6025 36.508C97.1185 36.328 97.7065 36.238 98.3665 36.238C99.0505 36.238 99.6745 36.4 100.239 36.724C100.803 37.048 101.253 37.522 101.589 38.146C101.937 38.758 102.111 39.508 102.111 40.396C102.111 41.284 101.919 42.052 101.535 42.7C101.163 43.348 100.665 43.846 100.041 44.194C99.4165 44.542 98.7445 44.716 98.0245 44.716ZM97.4665 42.592C97.8385 42.592 98.1805 42.496 98.4925 42.304C98.8165 42.112 99.0745 41.848 99.2665 41.512C99.4585 41.176 99.5545 40.798 99.5545 40.378C99.5545 39.958 99.4585 39.586 99.2665 39.262C99.0745 38.938 98.8165 38.686 98.4925 38.506C98.1805 38.314 97.8385 38.218 97.4665 38.218C97.1425 38.218 96.8365 38.272 96.5485 38.38C96.2725 38.476 96.0325 38.62 95.8285 38.812C95.6365 38.992 95.4865 39.214 95.3785 39.478V41.404C95.5225 41.668 95.6905 41.89 95.8825 42.07C96.0865 42.238 96.3205 42.37 96.5845 42.466C96.8485 42.55 97.1425 42.592 97.4665 42.592ZM107.403 44.716C106.671 44.716 106.005 44.572 105.405 44.284C104.817 43.984 104.349 43.528 104.001 42.916C103.653 42.304 103.479 41.524 103.479 40.576C103.479 39.688 103.659 38.92 104.019 38.272C104.379 37.624 104.853 37.126 105.441 36.778C106.029 36.418 106.653 36.238 107.313 36.238C108.093 36.238 108.681 36.37 109.077 36.634C109.485 36.886 109.821 37.168 110.085 37.48L109.977 37.786L110.211 36.634H112.551V44.5H110.031V42.79L110.229 43.33C110.205 43.33 110.133 43.402 110.013 43.546C109.893 43.678 109.713 43.84 109.473 44.032C109.245 44.212 108.957 44.368 108.609 44.5C108.273 44.644 107.871 44.716 107.403 44.716ZM108.123 42.664C108.423 42.664 108.693 42.622 108.933 42.538C109.173 42.442 109.383 42.31 109.563 42.142C109.743 41.962 109.899 41.74 110.031 41.476V39.55C109.935 39.286 109.791 39.064 109.599 38.884C109.407 38.692 109.179 38.548 108.915 38.452C108.651 38.344 108.357 38.29 108.033 38.29C107.673 38.29 107.337 38.386 107.025 38.578C106.725 38.758 106.485 39.01 106.305 39.334C106.125 39.658 106.035 40.03 106.035 40.45C106.035 40.87 106.131 41.248 106.323 41.584C106.515 41.92 106.767 42.184 107.079 42.376C107.403 42.568 107.751 42.664 108.123 42.664ZM117.704 44.662C117.056 44.662 116.45 44.548 115.886 44.32C115.334 44.092 114.866 43.774 114.482 43.366L115.526 41.98C115.91 42.328 116.264 42.58 116.588 42.736C116.924 42.88 117.224 42.952 117.488 42.952C117.692 42.952 117.872 42.934 118.028 42.898C118.196 42.85 118.328 42.784 118.424 42.7C118.52 42.604 118.568 42.484 118.568 42.34C118.568 42.136 118.484 41.974 118.316 41.854C118.16 41.734 117.956 41.638 117.704 41.566C117.452 41.482 117.182 41.398 116.894 41.314C116.174 41.086 115.652 40.756 115.328 40.324C115.016 39.88 114.86 39.4 114.86 38.884C114.86 38.488 114.962 38.092 115.166 37.696C115.382 37.288 115.718 36.952 116.174 36.688C116.642 36.412 117.242 36.274 117.974 36.274C118.634 36.274 119.192 36.34 119.648 36.472C120.104 36.604 120.536 36.82 120.944 37.12L119.99 38.596C119.762 38.416 119.504 38.266 119.216 38.146C118.94 38.014 118.682 37.942 118.442 37.93C118.226 37.918 118.04 37.942 117.884 38.002C117.74 38.062 117.626 38.14 117.542 38.236C117.458 38.332 117.416 38.434 117.416 38.542C117.404 38.77 117.488 38.95 117.668 39.082C117.86 39.214 118.1 39.316 118.388 39.388C118.676 39.46 118.958 39.544 119.234 39.64C119.618 39.76 119.948 39.922 120.224 40.126C120.5 40.33 120.71 40.576 120.854 40.864C121.01 41.14 121.088 41.476 121.088 41.872C121.088 42.352 120.962 42.808 120.71 43.24C120.47 43.66 120.098 44.002 119.594 44.266C119.102 44.53 118.472 44.662 117.704 44.662ZM127.068 44.716C126.108 44.716 125.292 44.536 124.62 44.176C123.96 43.816 123.456 43.318 123.108 42.682C122.76 42.046 122.586 41.314 122.586 40.486C122.586 39.694 122.79 38.98 123.198 38.344C123.606 37.708 124.152 37.204 124.836 36.832C125.52 36.448 126.282 36.256 127.122 36.256C128.25 36.256 129.174 36.586 129.894 37.246C130.626 37.894 131.1 38.836 131.316 40.072L125.196 42.016L124.638 40.648L129.066 39.154L128.544 39.388C128.448 39.076 128.274 38.806 128.022 38.578C127.782 38.338 127.416 38.218 126.924 38.218C126.552 38.218 126.222 38.308 125.934 38.488C125.658 38.656 125.442 38.902 125.286 39.226C125.142 39.538 125.07 39.91 125.07 40.342C125.07 40.834 125.16 41.248 125.34 41.584C125.52 41.908 125.766 42.154 126.078 42.322C126.39 42.49 126.738 42.574 127.122 42.574C127.398 42.574 127.662 42.526 127.914 42.43C128.178 42.334 128.436 42.208 128.688 42.052L129.804 43.924C129.384 44.164 128.928 44.356 128.436 44.5C127.956 44.644 127.5 44.716 127.068 44.716Z" fill="white"/>
<path d="M14 29.1667C14 26.6744 14 25.4282 14.5359 24.5C14.887 23.8919 15.3919 23.387 16 23.0359C16.9282 22.5 18.1744 22.5 20.6667 22.5H27.3333C29.8256 22.5 31.0718 22.5 32 23.0359C32.6081 23.387 33.113 23.8919 33.4641 24.5C34 25.4282 34 26.6744 34 29.1667V32.5C34 34.3586 34 35.2879 33.8463 36.0607C33.215 39.2342 30.7342 41.715 27.5607 42.3463C26.7879 42.5 25.8586 42.5 24 42.5V42.5C22.1414 42.5 21.2121 42.5 20.4393 42.3463C17.2658 41.715 14.785 39.2342 14.1537 36.0607C14 35.2879 14 34.3586 14 32.5V29.1667Z" stroke="white" stroke-width="4"/>
<path d="M18 18.5C18 16.6362 18 15.7044 18.3045 14.9693C18.7105 13.9892 19.4892 13.2105 20.4693 12.8045C21.2044 12.5 22.1362 12.5 24 12.5V12.5C25.8638 12.5 26.7956 12.5 27.5307 12.8045C28.5108 13.2105 29.2895 13.9892 29.6955 14.9693C30 15.7044 30 16.6362 30 18.5V22.5H18V18.5Z" stroke="white" stroke-width="4"/>
<path d="M24 22.5V30.5" stroke="white" stroke-width="4"/>
<path d="M30 6.5L26 12.5" stroke="white" stroke-width="4"/>
<path d="M18 6.5L22 12.5" stroke="white" stroke-width="4"/>
<path d="M14 32.5H4" stroke="white" stroke-width="4"/>
<path d="M44 32.5H34" stroke="white" stroke-width="4"/>
<path d="M40 18.5V20.5C40 23.8137 37.3137 26.5 34 26.5V26.5" stroke="white" stroke-width="4"/>
<path d="M40 44.5V44.5C40 41.1863 37.3137 38.5 34 38.5V38.5" stroke="white" stroke-width="4"/>
<path d="M8 18.5V20.5C8 23.8137 10.6863 26.5 14 26.5V26.5" stroke="white" stroke-width="4"/>
<path d="M8 44.5V44.5C8 41.1863 10.6863 38.5 14 38.5V38.5" stroke="white" stroke-width="4"/>
</svg>
